<?xml version="1.0" encoding="UTF-8"?>
<svg version="1.1" xmlns="http://www.w3.org/2000/svg" width="64" height="64">
<path d="M0 0 C0.31563182 5.26053037 -0.33409063 8.44573816 -3 13 C-3.90363281 12.97679687 -4.80726562 12.95359375 -5.73828125 12.9296875 C-6.91777344 12.91164063 -8.09726562 12.89359375 -9.3125 12.875 C-10.48425781 12.85179687 -11.65601563 12.82859375 -12.86328125 12.8046875 C-16.16393661 12.74679382 -16.16393661 12.74679382 -19 15 C-15.04 15.33 -11.08 15.66 -7 16 C-6.67 17.32 -6.34 18.64 -6 20 C-7 21 -7 21 -10.37890625 21.09765625 C-11.77347077 21.09098369 -13.16801743 21.07902532 -14.5625 21.0625 C-15.27341797 21.05798828 -15.98433594 21.05347656 -16.71679688 21.04882812 C-18.47790013 21.03700864 -20.23896036 21.01907263 -22 21 C-22 21.99 -22 22.98 -22 24 C-17.05 24 -12.1 24 -7 24 C-6.67 25.32 -6.34 26.64 -6 28 C-7 29 -7 29 -9.72265625 29.09765625 C-10.82480469 29.08605469 -11.92695312 29.07445312 -13.0625 29.0625 C-14.16722656 29.05347656 -15.27195312 29.04445312 -16.41015625 29.03515625 C-17.26480469 29.02355469 -18.11945312 29.01195312 -19 29 C-17.36587557 30.70840281 -16.13093906 31.93453047 -14 33 C-12.12137125 32.91255632 -10.24544819 32.75824458 -8.375 32.5625 C-6.87066406 32.40974609 -6.87066406 32.40974609 -5.3359375 32.25390625 C-4.56507812 32.17011719 -3.79421875 32.08632813 -3 32 C1.93998554 40.88756327 1.93998554 40.88756327 1 45 C-3.87240116 49.70438733 -9.43395226 49.27875353 -15.83203125 49.21484375 C-21.04221387 48.86150214 -23.74946988 47.07188296 -27.625 43.75 C-35.05953958 35.14158575 -35.67159423 27.09962101 -35 16 C-33.75950811 9.23101671 -30.94694018 3.94643674 -25.3203125 -0.25390625 C-17.40251198 -4.96844722 -7.90564315 -4.31216899 0 0 Z " fill="#FFB014" transform="translate(49,9)"/>
</svg>
